<svg width="56" height="56" viewBox="0 0 56 56" fill="none" xmlns="http://www.w3.org/2000/svg">
<path opacity="0.2" d="M45.5 8.75V45.5H33.25V8.75H45.5Z" fill="white"/>
<path d="M49 43.75H47.25V8.75C47.25 8.28587 47.0656 7.84075 46.7374 7.51256C46.4092 7.18437 45.9641 7 45.5 7H33.25C32.7859 7 32.3408 7.18437 32.0126 7.51256C31.6844 7.84075 31.5 8.28587 31.5 8.75V17.5H21C20.5359 17.5 20.0908 17.6844 19.7626 18.0126C19.4344 18.3408 19.25 18.7859 19.25 19.25V28H10.5C10.0359 28 9.59075 28.1844 9.26256 28.5126C8.93437 28.8408 8.75 29.2859 8.75 29.75V43.75H7C6.53587 43.75 6.09075 43.9344 5.76256 44.2626C5.43437 44.5908 5.25 45.0359 5.25 45.5C5.25 45.9641 5.43437 46.4092 5.76256 46.7374C6.09075 47.0656 6.53587 47.25 7 47.25H49C49.4641 47.25 49.9092 47.0656 50.2374 46.7374C50.5656 46.4092 50.75 45.9641 50.75 45.5C50.75 45.0359 50.5656 44.5908 50.2374 44.2626C49.9092 43.9344 49.4641 43.75 49 43.75ZM35 10.5H43.75V43.75H35V10.5ZM22.75 21H31.5V43.75H22.75V21ZM12.25 31.5H19.25V43.75H12.25V31.5Z" fill="white"/>
</svg>
