<svg width="56" height="56" viewBox="0 0 56 56" fill="none" xmlns="http://www.w3.org/2000/svg">
<path opacity="0.2" d="M38.5 24.5L16.2619 46.7381C15.9337 47.0661 15.4888 47.2503 15.0248 47.2503C14.5609 47.2503 14.116 47.0661 13.7878 46.7381L9.26188 42.2188C8.93394 41.8906 8.74972 41.4456 8.74972 40.9817C8.74972 40.5178 8.93394 40.0728 9.26188 39.7447L31.5 17.5L38.5 24.5Z" fill="white"/>
<path d="M54.25 33.25C54.25 33.7141 54.0656 34.1592 53.7374 34.4874C53.4093 34.8156 52.9641 35 52.5 35H49V38.5C49 38.9641 48.8156 39.4092 48.4874 39.7374C48.1593 40.0656 47.7141 40.25 47.25 40.25C46.7859 40.25 46.3408 40.0656 46.0126 39.7374C45.6844 39.4092 45.5 38.9641 45.5 38.5V35H42C41.5359 35 41.0908 34.8156 40.7626 34.4874C40.4344 34.1592 40.25 33.7141 40.25 33.25C40.25 32.7859 40.4344 32.3408 40.7626 32.0126C41.0908 31.6844 41.5359 31.5 42 31.5H45.5V28C45.5 27.5359 45.6844 27.0908 46.0126 26.7626C46.3408 26.4344 46.7859 26.25 47.25 26.25C47.7141 26.25 48.1593 26.4344 48.4874 26.7626C48.8156 27.0908 49 27.5359 49 28V31.5H52.5C52.9641 31.5 53.4093 31.6844 53.7374 32.0126C54.0656 32.3408 54.25 32.7859 54.25 33.25ZM12.25 15.75H15.75V19.25C15.75 19.7141 15.9344 20.1592 16.2626 20.4874C16.5908 20.8156 17.0359 21 17.5 21C17.9641 21 18.4093 20.8156 18.7374 20.4874C19.0656 20.1592 19.25 19.7141 19.25 19.25V15.75H22.75C23.2141 15.75 23.6593 15.5656 23.9874 15.2374C24.3156 14.9092 24.5 14.4641 24.5 14C24.5 13.5359 24.3156 13.0908 23.9874 12.7626C23.6593 12.4344 23.2141 12.25 22.75 12.25H19.25V8.75C19.25 8.28587 19.0656 7.84075 18.7374 7.51256C18.4093 7.18437 17.9641 7 17.5 7C17.0359 7 16.5908 7.18437 16.2626 7.51256C15.9344 7.84075 15.75 8.28587 15.75 8.75V12.25H12.25C11.7859 12.25 11.3408 12.4344 11.0126 12.7626C10.6844 13.0908 10.5 13.5359 10.5 14C10.5 14.4641 10.6844 14.9092 11.0126 15.2374C11.3408 15.5656 11.7859 15.75 12.25 15.75ZM40.25 42H38.5V40.25C38.5 39.7859 38.3156 39.3408 37.9874 39.0126C37.6593 38.6844 37.2141 38.5 36.75 38.5C36.2859 38.5 35.8408 38.6844 35.5126 39.0126C35.1844 39.3408 35 39.7859 35 40.25V42H33.25C32.7859 42 32.3408 42.1844 32.0126 42.5126C31.6844 42.8408 31.5 43.2859 31.5 43.75C31.5 44.2141 31.6844 44.6592 32.0126 44.9874C32.3408 45.3156 32.7859 45.5 33.25 45.5H35V47.25C35 47.7141 35.1844 48.1592 35.5126 48.4874C35.8408 48.8156 36.2859 49 36.75 49C37.2141 49 37.6593 48.8156 37.9874 48.4874C38.3156 48.1592 38.5 47.7141 38.5 47.25V45.5H40.25C40.7141 45.5 41.1593 45.3156 41.4874 44.9874C41.8156 44.6592 42 44.2141 42 43.75C42 43.2859 41.8156 42.8408 41.4874 42.5126C41.1593 42.1844 40.7141 42 40.25 42ZM47.9741 17.5L17.5 47.9741C16.8437 48.6299 15.9538 48.9984 15.0259 48.9984C14.0981 48.9984 13.2082 48.6299 12.5519 47.9741L8.02375 43.4503C7.69866 43.1253 7.44078 42.7394 7.26484 42.3147C7.0889 41.89 6.99834 41.4349 6.99834 40.9752C6.99834 40.5155 7.0889 40.0603 7.26484 39.6356C7.44078 39.2109 7.69866 38.825 8.02375 38.5L38.5 8.02594C38.825 7.70085 39.2109 7.44297 39.6356 7.26703C40.0603 7.09109 40.5155 7.00053 40.9752 7.00053C41.4349 7.00053 41.89 7.09109 42.3147 7.26703C42.7394 7.44297 43.1253 7.70085 43.4503 8.02594L47.9741 12.5497C48.2992 12.8747 48.557 13.2606 48.733 13.6853C48.9089 14.11 48.9995 14.5651 48.9995 15.0248C48.9995 15.4845 48.9089 15.9397 48.733 16.3644C48.557 16.7891 48.2992 17.175 47.9741 17.5ZM36.0238 24.5L31.5 19.9741L10.5 40.9741L15.0238 45.5L36.0238 24.5ZM45.5 15.0259L40.9741 10.5L33.9741 17.5L38.5 22.0259L45.5 15.0259Z" fill="white"/>
</svg>
