<svg width="56" height="56" viewBox="0 0 56 56" fill="none" xmlns="http://www.w3.org/2000/svg">
<path opacity="0.2" d="M52.5 27.125C52.5007 29.2969 51.8278 31.4156 50.5742 33.1891C49.3205 34.9627 47.5477 36.3038 45.5 37.0278V38.5C45.5 40.8206 44.5781 43.0462 42.9372 44.6872C41.2962 46.3281 39.0706 47.25 36.75 47.25C34.4294 47.25 32.2038 46.3281 30.5628 44.6872C28.9219 43.0462 28 40.8206 28 38.5C28 40.8206 27.0781 43.0462 25.4372 44.6872C23.7962 46.3281 21.5706 47.25 19.25 47.25C16.9294 47.25 14.7038 46.3281 13.0628 44.6872C11.4219 43.0462 10.5 40.8206 10.5 38.5V37.0278C8.45055 36.3054 6.67572 34.9649 5.42027 33.1912C4.16482 31.4176 3.4906 29.298 3.4906 27.125C3.4906 24.952 4.16482 22.8324 5.42027 21.0588C6.67572 19.2851 8.45055 17.9446 10.5 17.2222V15.75C10.5 13.4294 11.4219 11.2038 13.0628 9.56282C14.7038 7.92187 16.9294 7 19.25 7C21.5706 7 23.7962 7.92187 25.4372 9.56282C27.0781 11.2038 28 13.4294 28 15.75C28 13.4294 28.9219 11.2038 30.5628 9.56282C32.2038 7.92187 34.4294 7 36.75 7C39.0706 7 41.2962 7.92187 42.9372 9.56282C44.5781 11.2038 45.5 13.4294 45.5 15.75V17.2222C47.5477 17.9462 49.3205 19.2873 50.5742 21.0609C51.8278 22.8344 52.5007 24.9531 52.5 27.125Z" fill="white"/>
<path d="M54.25 27.125C54.2477 24.807 53.589 22.537 52.3502 20.5777C51.1114 18.6185 49.3431 17.0501 47.25 16.0541V15.75C47.248 13.4952 46.5202 11.3009 45.1742 9.49181C43.8283 7.68274 41.9357 6.35501 39.7766 5.70506C37.6175 5.05511 35.3065 5.11748 33.1855 5.88294C31.0646 6.6484 29.2464 8.07628 28 9.95531C26.7536 8.07628 24.9354 6.6484 22.8145 5.88294C20.6935 5.11748 18.3825 5.05511 16.2234 5.70506C14.0643 6.35501 12.1717 7.68274 10.8258 9.49181C9.47984 11.3009 8.75202 13.4952 8.75 15.75V16.0541C6.65511 17.0474 4.88512 18.6148 3.64571 20.5741C2.40629 22.5335 1.74836 24.8044 1.74836 27.1228C1.74836 29.4413 2.40629 31.7121 3.64571 33.6715C4.88512 35.6308 6.65511 37.1982 8.75 38.1916V38.5C8.75202 40.7548 9.47984 42.9491 10.8258 44.7582C12.1717 46.5673 14.0643 47.895 16.2234 48.5449C18.3825 49.1949 20.6935 49.1325 22.8145 48.3671C24.9354 47.6016 26.7536 46.1737 28 44.2947C29.2464 46.1737 31.0646 47.6016 33.1855 48.3671C35.3065 49.1325 37.6175 49.1949 39.7766 48.5449C41.9357 47.895 43.8283 46.5673 45.1742 44.7582C46.5202 42.9491 47.248 40.7548 47.25 38.5V38.1916C49.3428 37.1963 51.1109 35.6287 52.3497 33.6702C53.5885 31.7117 54.2474 29.4424 54.25 27.125ZM19.25 45.5C17.5239 45.4998 15.8588 44.8618 14.5745 43.7087C13.2901 42.5555 12.4771 40.9686 12.2916 39.2525C12.8575 39.3332 13.4284 39.3742 14 39.375H15.75C16.2141 39.375 16.6592 39.1906 16.9874 38.8624C17.3156 38.5342 17.5 38.0891 17.5 37.625C17.5 37.1609 17.3156 36.7158 16.9874 36.3876C16.6592 36.0594 16.2141 35.875 15.75 35.875H14C11.934 35.8774 9.93385 35.1487 8.35358 33.818C6.7733 32.4872 5.71487 30.6402 5.36567 28.604C5.01647 26.5677 5.39904 24.4736 6.44563 22.6924C7.49223 20.9111 9.13534 19.5576 11.0841 18.8716C11.425 18.7508 11.7202 18.5274 11.929 18.2321C12.1378 17.9367 12.2499 17.5839 12.25 17.2222V15.75C12.25 13.8935 12.9875 12.113 14.3003 10.8003C15.613 9.4875 17.3935 8.75 19.25 8.75C21.1065 8.75 22.887 9.4875 24.1997 10.8003C25.5125 12.113 26.25 13.8935 26.25 15.75V30.6819C24.3283 28.9535 21.8346 27.9981 19.25 28C18.7859 28 18.3408 28.1844 18.0126 28.5126C17.6844 28.8408 17.5 29.2859 17.5 29.75C17.5 30.2141 17.6844 30.6592 18.0126 30.9874C18.3408 31.3156 18.7859 31.5 19.25 31.5C21.1065 31.5 22.887 32.2375 24.1997 33.5503C25.5125 34.863 26.25 36.6435 26.25 38.5C26.25 40.3565 25.5125 42.137 24.1997 43.4497C22.887 44.7625 21.1065 45.5 19.25 45.5ZM42 35.875H40.25C39.7859 35.875 39.3407 36.0594 39.0126 36.3876C38.6844 36.7158 38.5 37.1609 38.5 37.625C38.5 38.0891 38.6844 38.5342 39.0126 38.8624C39.3407 39.1906 39.7859 39.375 40.25 39.375H42C42.5716 39.3742 43.1425 39.3332 43.7084 39.2525C43.5631 40.5971 43.0313 41.8708 42.1774 42.9196C41.3235 43.9683 40.1841 44.7473 38.897 45.1623C37.6098 45.5773 36.2299 45.6105 34.9243 45.258C33.6186 44.9054 32.443 44.1822 31.5397 43.1758C30.6363 42.1693 30.0438 40.9227 29.8339 39.5867C29.6239 38.2507 29.8055 36.8824 30.3566 35.6474C30.9078 34.4124 31.8049 33.3634 32.9395 32.6274C34.0741 31.8914 35.3976 31.4998 36.75 31.5C37.2141 31.5 37.6592 31.3156 37.9874 30.9874C38.3156 30.6592 38.5 30.2141 38.5 29.75C38.5 29.2859 38.3156 28.8408 37.9874 28.5126C37.6592 28.1844 37.2141 28 36.75 28C34.1654 27.9981 31.6717 28.9535 29.75 30.6819V15.75C29.75 13.8935 30.4875 12.113 31.8003 10.8003C33.113 9.4875 34.8935 8.75 36.75 8.75C38.6065 8.75 40.387 9.4875 41.6997 10.8003C43.0125 12.113 43.75 13.8935 43.75 15.75V17.2222C43.7501 17.5839 43.8622 17.9367 44.071 18.2321C44.2798 18.5274 44.575 18.7508 44.9159 18.8716C46.8647 19.5576 48.5078 20.9111 49.5544 22.6924C50.601 24.4736 50.9835 26.5677 50.6343 28.604C50.2851 30.6402 49.2267 32.4872 47.6464 33.818C46.0661 35.1487 44.066 35.8774 42 35.875ZM45.5 24.5C45.5 24.9641 45.3156 25.4092 44.9874 25.7374C44.6592 26.0656 44.2141 26.25 43.75 26.25H42.875C40.7864 26.25 38.7834 25.4203 37.3065 23.9435C35.8297 22.4666 35 20.4636 35 18.375V17.5C35 17.0359 35.1844 16.5908 35.5126 16.2626C35.8408 15.9344 36.2859 15.75 36.75 15.75C37.2141 15.75 37.6592 15.9344 37.9874 16.2626C38.3156 16.5908 38.5 17.0359 38.5 17.5V18.375C38.5 19.5353 38.9609 20.6481 39.7814 21.4686C40.6019 22.2891 41.7147 22.75 42.875 22.75H43.75C44.2141 22.75 44.6592 22.9344 44.9874 23.2626C45.3156 23.5908 45.5 24.0359 45.5 24.5ZM13.125 26.25H12.25C11.7859 26.25 11.3408 26.0656 11.0126 25.7374C10.6844 25.4092 10.5 24.9641 10.5 24.5C10.5 24.0359 10.6844 23.5908 11.0126 23.2626C11.3408 22.9344 11.7859 22.75 12.25 22.75H13.125C14.2853 22.75 15.3981 22.2891 16.2186 21.4686C17.0391 20.6481 17.5 19.5353 17.5 18.375V17.5C17.5 17.0359 17.6844 16.5908 18.0126 16.2626C18.3408 15.9344 18.7859 15.75 19.25 15.75C19.7141 15.75 20.1592 15.9344 20.4874 16.2626C20.8156 16.5908 21 17.0359 21 17.5V18.375C21 20.4636 20.1703 22.4666 18.6935 23.9435C17.2166 25.4203 15.2136 26.25 13.125 26.25Z" fill="white"/>
</svg>
