<?xml version="1.0" encoding="utf-8"?>
<!-- Generator: Adobe Illustrator 26.5.0, SVG Export Plug-In . SVG Version: 6.00 Build 0)  -->
<svg version="1.1" id="Layer_1" xmlns="http://www.w3.org/2000/svg" xmlns:xlink="http://www.w3.org/1999/xlink" x="0px" y="0px"
	 viewBox="0 0 16 16" style="enable-background:new 0 0 16 16;" xml:space="preserve">
<style type="text/css">
	.st0{fill:#1A1A19;}
	.st1{fill:#7626A1;}
	.st2{fill:#4B1970;}
	.st3{fill:#FFC20F;}
	.st4{fill:url(#SVGID_1_);}
	.st5{fill:url(#SVGID_00000010298268235923522340000010254123700620911489_);}
	.st6{fill:#FF9900;}
	.st7{fill:url(#SVGID_00000139976229577505379610000012202100128319523715_);}
	.st8{fill:url(#SVGID_00000023970426116568965860000004543106906459622305_);}
</style>
<g>
	<linearGradient id="SVGID_1_" gradientUnits="userSpaceOnUse" x1="7.4652" y1="5.5416" x2="3.3662" y2="12.9079">
		<stop  offset="0" style="stop-color:#7626A1"/>
		<stop  offset="1" style="stop-color:#4B1970"/>
	</linearGradient>
	<path class="st4" d="M1.89,12.89c-0.26,0.53-0.63,1.33-0.91,1.85c0.28-0.01,0.56,0,0.84-0.02c0.3,0.02,0.6,0,0.9,0
		c0.25,0,0.5,0.01,0.75-0.01c0.12,0.01,0.28,0.03,0.4-0.02c0.21-0.35,0.47-0.99,0.68-1.34C3.6,13.49,2.71,13.37,1.89,12.89z"/>
	
		<linearGradient id="SVGID_00000065759641380865095890000000554525223669100730_" gradientUnits="userSpaceOnUse" x1="11.4466" y1="7.7571" x2="7.3476" y2="15.1234">
		<stop  offset="0" style="stop-color:#7626A1"/>
		<stop  offset="1" style="stop-color:#4B1970"/>
	</linearGradient>
	<path style="fill:url(#SVGID_00000065759641380865095890000000554525223669100730_);" d="M15.21,14.65l-5.1-1.28L9.6,11.32
		l-0.28-1.13L9.18,9.65l-0.27-1.1L8.29,6.09C8.24,5.86,7.91,5.82,7.81,6.04L6.94,7.9c-0.2,0.43-0.72,1.64-0.9,2.09l-0.01,0.02
		c-0.15,0.07-0.31,0.13-0.46,0.19c-0.03,0.01-0.07,0.03-0.1,0.04c-0.24,0.09-0.49,0.18-0.74,0.25c-0.39,0.11-0.9,0.21-1.36,0.16
		c-0.1-0.01-0.21-0.03-0.3-0.06c0.21-0.49,0.47-1.11,0.69-1.62c0.02-0.05,0.04-0.1,0.06-0.14C3.9,8.67,3.97,8.52,4.02,8.41L4.45,7.5
		l0.06-0.12L5.8,4.63L6.67,2.8c0.16-0.33,0.3-0.68,0.49-0.99C7.28,1.63,7.4,1.5,7.6,1.4c0.01,0,0.02-0.01,0.02-0.01
		c0.01,0,0.02-0.01,0.02-0.01c0.01,0,0.02-0.01,0.03-0.01c0.01,0,0.02-0.01,0.03-0.01c0.01,0,0.02-0.01,0.03-0.01
		c0.01,0,0.02-0.01,0.03-0.01c0.01,0,0.02-0.01,0.03-0.01c0.01,0,0.02-0.01,0.03-0.01c0.01,0,0.02-0.01,0.03-0.01
		c0.01,0,0.02,0,0.03-0.01c0.01,0,0.02,0,0.03-0.01c0.01,0,0.02,0,0.03-0.01c0.01,0,0.02,0,0.03,0c0.01,0,0.02,0,0.03,0
		c0.01,0,0.02,0,0.03,0c0.01,0,0.02,0,0.03,0c0.01,0,0.02,0,0.03,0h0.03c0.01,0,0.02,0,0.03,0h0.06c0.01,0,0.02,0,0.03,0h0.03
		c0.01,0,0.02,0,0.03,0c0.01,0,0.02,0,0.03,0c0.01,0,0.02,0,0.03,0c0.01,0,0.02,0,0.03,0c0.01,0,0.02,0,0.03,0.01
		c0.01,0,0.02,0,0.03,0c0.01,0,0.02,0,0.03,0.01c0.01,0,0.01,0,0.02,0c0.01,0,0.03,0.01,0.04,0.01c0.23,0.07,0.42,0.21,0.57,0.4
		c0.1,0.14,0.21,0.33,0.31,0.53l0,0.01L9.6,2.7c0.07,0.14,0.13,0.27,0.18,0.38C9.8,3.12,9.82,3.16,9.84,3.2l1.61,3.36l0.24,0.51
		l0.49,1.02l0.25,0.52l0.5,1.04c0,0,0,0,0,0l2.23,4.66C15.2,14.42,15.22,14.54,15.21,14.65z"/>
	<path class="st6" d="M9.32,10.19c-0.4,0.21-0.79,0.41-1.19,0.61c-0.74,0.37-1.49,0.75-2.28,1c0.01-0.1,0.02-0.19,0.02-0.29
		c-0.93,0.33-1.95,0.59-2.91,0.37c-1.42-0.46-1.67-1.13-1.66-1.58c0,0.14,0.05,0.26,0.13,0.38c0.04,0.07,0.09,0.14,0.14,0.2
		c0.1,0.13,0.22,0.24,0.34,0.34c0.13,0.1,0.26,0.19,0.41,0.27c0.14,0.08,0.29,0.14,0.45,0.19c0.64,0.19,1.97-0.01,2-0.02
		c0.94-0.23,1.81-0.67,2.67-1.1c0.59-0.29,1.18-0.6,1.76-0.9l-0.27-1.1C8.5,8.77,8.1,8.98,7.69,9.2C7.28,9.41,6.87,9.63,6.44,9.83
		c-0.14,0.07-0.27,0.13-0.41,0.19c-0.15,0.07-0.31,0.13-0.46,0.19c-0.03,0.01-0.07,0.03-0.1,0.04c-0.24,0.09-0.49,0.18-0.74,0.25
		c-0.39,0.11-0.9,0.21-1.36,0.16c-0.1-0.01-0.21-0.03-0.3-0.06c-0.11-0.03-0.22-0.08-0.32-0.13C2.58,10.36,2.43,10.2,2.38,10
		c-0.05-0.19,0-0.38,0.1-0.54c0.17-0.28,0.53-0.51,0.85-0.59c0.02,0,0.26-0.02,0.5-0.03C3.9,8.67,3.97,8.52,4.02,8.41L4.45,7.5
		l0.06-0.12c-1.04,0.16-2.5,0.56-3.08,1.28c-0.14,0.18-0.37,0.47-0.42,0.7C1,9.38,0.99,9.39,0.98,9.4
		c-0.27,0.57-0.24,1.35-0.02,1.93c0.28,0.74,0.88,1.27,1.6,1.58c0.61,0.27,1.25,0.32,1.91,0.28c1.85-0.13,3.51-1.02,5.13-1.87
		L9.32,10.19z M1.41,9.83L1.41,9.83L1.41,9.83C1.41,9.83,1.41,9.83,1.41,9.83z"/>
	<polygon class="st3" points="1.41,9.83 1.41,9.83 1.41,9.83 	"/>
	<polygon class="st3" points="1.41,9.83 1.41,9.83 1.41,9.83 	"/>
	<polygon class="st3" points="1.41,9.83 1.41,9.83 1.41,9.83 	"/>
	<polygon class="st3" points="1.41,9.83 1.41,9.83 1.41,9.83 	"/>
</g>
</svg>
